<svg width="231" height="48" viewBox="0 0 231 48" fill="none" xmlns="http://www.w3.org/2000/svg">
<g clip-path="url(#clip0_8230_2)">
<path d="M0.425781 12.6316C0.425781 5.65535 6.08113 0 13.0574 0H35.7942C42.7704 0 48.4258 5.65535 48.4258 12.6316V35.3684C48.4258 42.3446 42.7704 48 35.7942 48H13.0574C6.08113 48 0.425781 42.3446 0.425781 35.3684V12.6316Z" fill="#465FFF"/>
<g filter="url(#filter0_d_8230_2)">
<path d="M13.0615 12.6323C13.0615 11.237 14.1926 10.106 15.5878 10.106C16.9831 10.106 18.1142 11.237 18.1142 12.6323V35.3691C18.1142 36.7644 16.9831 37.8954 15.5878 37.8954C14.1926 37.8954 13.0615 36.7644 13.0615 35.3691V12.6323Z" fill="white"/>
</g>
<g filter="url(#filter1_d_8230_2)">
<path d="M22.5391 22.7353C22.5391 21.3401 23.6701 20.209 25.0654 20.209C26.4606 20.209 27.5917 21.3401 27.5917 22.7353V35.3669C27.5917 36.7621 26.4606 37.8932 25.0654 37.8932C23.6701 37.8932 22.5391 36.7621 22.5391 35.3669V22.7353Z" fill="white" fill-opacity="0.9"/>
</g>
<g filter="url(#filter2_d_8230_2)">
<path d="M32.0078 16.4189C32.0078 15.0236 33.1389 13.8926 34.5341 13.8926C35.9294 13.8926 37.0604 15.0236 37.0604 16.4189V35.3663C37.0604 36.7615 35.9294 37.8926 34.5341 37.8926C33.1389 37.8926 32.0078 36.7615 32.0078 35.3663V16.4189Z" fill="white" fill-opacity="0.7"/>
</g>
<path d="M56.748 26L65.484 6.4H69.964L78.728 26H73.968L66.8 8.696H68.592L61.396 26H56.748ZM61.116 21.8L62.32 18.356H72.4L73.632 21.8H61.116ZM89.0281 26.336C87.5161 26.336 86.1067 26.0933 84.8001 25.608C83.5121 25.104 82.3921 24.3947 81.4401 23.48C80.4881 22.5653 79.7414 21.492 79.2001 20.26C78.6774 19.028 78.4161 17.6747 78.4161 16.2C78.4161 14.7253 78.6774 13.372 79.2001 12.14C79.7414 10.908 80.4881 9.83467 81.4401 8.92C82.4107 8.00533 83.5401 7.30533 84.8281 6.82C86.1161 6.316 87.5254 6.064 89.0561 6.064C90.7547 6.064 92.2854 6.36267 93.6481 6.96C95.0294 7.53867 96.1867 8.39733 97.1201 9.536L94.2081 12.224C93.5361 11.4587 92.7894 10.8893 91.9681 10.516C91.1467 10.124 90.2507 9.928 89.2801 9.928C88.3654 9.928 87.5254 10.0773 86.7601 10.376C85.9947 10.6747 85.3321 11.104 84.7721 11.664C84.2121 12.224 83.7734 12.8867 83.4561 13.652C83.1574 14.4173 83.0081 15.2667 83.0081 16.2C83.0081 17.1333 83.1574 17.9827 83.4561 18.748C83.7734 19.5133 84.2121 20.176 84.7721 20.736C85.3321 21.296 85.9947 21.7253 86.7601 22.024C87.5254 22.3227 88.3654 22.472 89.2801 22.472C90.2507 22.472 91.1467 22.2853 91.9681 21.912C92.7894 21.52 93.5361 20.932 94.2081 20.148L97.1201 22.836C96.1867 23.9747 95.0294 24.8427 93.6481 25.44C92.2854 26.0373 90.7454 26.336 89.0281 26.336ZM115.539 26.336C114.027 26.336 112.618 26.0933 111.311 25.608C110.023 25.104 108.903 24.3947 107.951 23.48C106.999 22.5653 106.253 21.492 105.711 20.26C105.189 19.028 104.927 17.6747 104.927 16.2C104.927 14.7253 105.189 13.372 105.711 12.14C106.253 10.908 106.999 9.83467 107.951 8.92C108.922 8.00533 110.051 7.30533 111.339 6.82C112.627 6.316 114.037 6.064 115.567 6.064C117.266 6.064 118.797 6.36267 120.159 6.96C121.541 7.53867 122.698 8.39733 123.631 9.536L120.719 12.224C120.047 11.4587 119.301 10.8893 118.479 10.516C117.658 10.124 116.762 9.928 115.791 9.928C114.877 9.928 114.037 10.0773 113.271 10.376C112.506 10.6747 111.843 11.104 111.283 11.664C110.723 12.224 110.285 12.8867 109.967 13.652C109.669 14.4173 109.519 15.2667 109.519 16.2C109.519 17.1333 109.669 17.9827 109.967 18.748C110.285 19.5133 110.723 20.176 111.283 20.736C111.843 21.296 112.506 21.7253 113.271 22.024C114.037 22.3227 114.877 22.472 115.791 22.472C116.762 22.472 117.658 22.2853 118.479 21.912C119.301 21.52 120.047 20.932 120.719 20.148L123.631 22.836C122.698 23.9747 121.541 24.8427 120.159 25.44C118.797 26.0373 117.257 26.336 115.539 26.336ZM131.274 26.224C130.023 26.224 128.903 25.9813 127.914 25.496C126.943 25.0107 126.187 24.2733 125.646 23.284C125.104 22.276 124.834 20.9973 124.834 19.448V10.936H129.202V18.804C129.202 20.0547 129.463 20.9787 129.986 21.576C130.527 22.1547 131.283 22.444 132.254 22.444C132.926 22.444 133.523 22.304 134.046 22.024C134.568 21.7253 134.979 21.2773 135.278 20.68C135.576 20.064 135.726 19.2987 135.726 18.384V10.936H140.094V26H135.95V21.856L136.706 23.06C136.202 24.1053 135.455 24.8987 134.466 25.44C133.495 25.9627 132.431 26.224 131.274 26.224ZM143.3 26V10.936H147.472V15.108L146.688 13.848C147.23 12.84 148.004 12.0653 149.012 11.524C150.02 10.9827 151.168 10.712 152.456 10.712C153.651 10.712 154.715 10.9547 155.648 11.44C156.6 11.9067 157.347 12.6347 157.888 13.624C158.43 14.5947 158.7 15.8453 158.7 17.376V26H154.332V18.048C154.332 16.8347 154.062 15.9387 153.52 15.36C152.998 14.7813 152.251 14.492 151.28 14.492C150.59 14.492 149.964 14.6413 149.404 14.94C148.863 15.22 148.434 15.6587 148.116 16.256C147.818 16.8533 147.668 17.6187 147.668 18.552V26H143.3ZM161.82 26V5.224H166.188V15.108L165.208 13.848C165.749 12.84 166.524 12.0653 167.532 11.524C168.54 10.9827 169.688 10.712 170.976 10.712C172.17 10.712 173.234 10.9547 174.168 11.44C175.12 11.9067 175.866 12.6347 176.408 13.624C176.949 14.5947 177.22 15.8453 177.22 17.376V26H172.852V18.048C172.852 16.8347 172.581 15.9387 172.04 15.36C171.517 14.7813 170.77 14.492 169.8 14.492C169.109 14.492 168.484 14.6413 167.924 14.94C167.382 15.22 166.953 15.6587 166.636 16.256C166.337 16.8533 166.188 17.6187 166.188 18.552V26H161.82ZM189.579 26V23.06L189.299 22.416V17.152C189.299 16.2187 189.01 15.4907 188.431 14.968C187.871 14.4453 187.003 14.184 185.827 14.184C185.024 14.184 184.231 14.3147 183.447 14.576C182.682 14.8187 182.028 15.1547 181.487 15.584L179.919 12.532C180.74 11.9533 181.73 11.5053 182.887 11.188C184.044 10.8707 185.22 10.712 186.415 10.712C188.711 10.712 190.494 11.2533 191.763 12.336C193.032 13.4187 193.667 15.108 193.667 17.404V26H189.579ZM184.987 26.224C183.811 26.224 182.803 26.028 181.963 25.636C181.123 25.2253 180.479 24.6747 180.031 23.984C179.583 23.2933 179.359 22.5187 179.359 21.66C179.359 20.764 179.574 19.98 180.003 19.308C180.451 18.636 181.151 18.1133 182.103 17.74C183.055 17.348 184.296 17.152 185.827 17.152H189.831V19.7H186.303C185.276 19.7 184.567 19.868 184.175 20.204C183.802 20.54 183.615 20.96 183.615 21.464C183.615 22.024 183.83 22.472 184.259 22.808C184.707 23.1253 185.314 23.284 186.079 23.284C186.807 23.284 187.46 23.116 188.039 22.78C188.618 22.4253 189.038 21.912 189.299 21.24L189.971 23.256C189.654 24.2267 189.075 24.964 188.235 25.468C187.395 25.972 186.312 26.224 184.987 26.224Z" fill="white"/>
<path d="M76.0113 42.065C75.3353 42.065 74.694 41.9523 74.0873 41.727C73.4893 41.493 73.0257 41.194 72.6963 40.83L72.9953 40.336C73.3073 40.6567 73.732 40.9297 74.2693 41.155C74.8153 41.3717 75.3917 41.48 75.9983 41.48C76.605 41.48 77.099 41.402 77.4803 41.246C77.8703 41.0813 78.1563 40.8647 78.3383 40.596C78.529 40.3273 78.6243 40.0283 78.6243 39.699C78.6243 39.309 78.5203 38.997 78.3123 38.763C78.1043 38.529 77.8313 38.3427 77.4933 38.204C77.1553 38.0653 76.787 37.9483 76.3883 37.853C75.9897 37.7577 75.5867 37.658 75.1793 37.554C74.772 37.4413 74.3993 37.2983 74.0613 37.125C73.7233 36.9517 73.4503 36.7177 73.2423 36.423C73.043 36.1197 72.9433 35.7297 72.9433 35.253C72.9433 34.8197 73.056 34.421 73.2813 34.057C73.5067 33.693 73.8577 33.3983 74.3343 33.173C74.811 32.9477 75.422 32.835 76.1673 32.835C76.67 32.835 77.164 32.9087 77.6493 33.056C78.1433 33.2033 78.5637 33.4027 78.9103 33.654L78.6633 34.187C78.282 33.927 77.8703 33.7363 77.4283 33.615C76.995 33.485 76.5747 33.42 76.1673 33.42C75.5867 33.42 75.1057 33.5023 74.7243 33.667C74.343 33.8317 74.0613 34.0527 73.8793 34.33C73.6973 34.5987 73.6063 34.902 73.6063 35.24C73.6063 35.63 73.706 35.942 73.9053 36.176C74.1133 36.41 74.3863 36.5963 74.7243 36.735C75.0623 36.8737 75.435 36.9907 75.8423 37.086C76.2497 37.1813 76.6527 37.2853 77.0513 37.398C77.45 37.502 77.8183 37.6407 78.1563 37.814C78.4943 37.9873 78.7673 38.2213 78.9753 38.516C79.1833 38.8107 79.2873 39.192 79.2873 39.66C79.2873 40.0847 79.1703 40.4833 78.9363 40.856C78.7023 41.22 78.3427 41.5147 77.8573 41.74C77.3807 41.9567 76.7653 42.065 76.0113 42.065ZM83.4652 42.052C82.8152 42.052 82.2345 41.9047 81.7232 41.61C81.2205 41.3153 80.8175 40.908 80.5142 40.388C80.2195 39.868 80.0722 39.2743 80.0722 38.607C80.0722 37.931 80.2195 37.3373 80.5142 36.826C80.8175 36.306 81.2205 35.8987 81.7232 35.604C82.2345 35.3093 82.8152 35.162 83.4652 35.162C84.1152 35.162 84.6959 35.3093 85.2072 35.604C85.7185 35.8987 86.1215 36.306 86.4162 36.826C86.7109 37.3373 86.8582 37.931 86.8582 38.607C86.8582 39.2743 86.7109 39.868 86.4162 40.388C86.1215 40.908 85.7185 41.3153 85.2072 41.61C84.6959 41.9047 84.1152 42.052 83.4652 42.052ZM83.4652 41.467C83.9852 41.467 84.4532 41.35 84.8692 41.116C85.2852 40.8733 85.6102 40.5353 85.8442 40.102C86.0782 39.6687 86.1952 39.1703 86.1952 38.607C86.1952 38.035 86.0782 37.5367 85.8442 37.112C85.6102 36.6787 85.2852 36.345 84.8692 36.111C84.4532 35.8683 83.9852 35.747 83.4652 35.747C82.9452 35.747 82.4772 35.8683 82.0612 36.111C81.6539 36.345 81.3289 36.6787 81.0862 37.112C80.8522 37.5367 80.7352 38.035 80.7352 38.607C80.7352 39.1703 80.8522 39.6687 81.0862 40.102C81.3289 40.5353 81.6539 40.8733 82.0612 41.116C82.4772 41.35 82.9452 41.467 83.4652 41.467ZM88.3547 42V32.354H89.0047V42H88.3547ZM93.9804 42.052C93.3997 42.052 92.897 41.948 92.4724 41.74C92.0477 41.5233 91.7184 41.2027 91.4844 40.778C91.259 40.3447 91.1464 39.8117 91.1464 39.179V35.214H91.7964V39.127C91.7964 39.8897 91.9914 40.4703 92.3814 40.869C92.7714 41.2677 93.3217 41.467 94.0324 41.467C94.5437 41.467 94.9857 41.3587 95.3584 41.142C95.731 40.9253 96.017 40.622 96.2164 40.232C96.4157 39.8333 96.5154 39.3653 96.5154 38.828V35.214H97.1654V42H96.5414V40.115L96.6324 40.336C96.433 40.8647 96.0994 41.285 95.6314 41.597C95.172 41.9003 94.6217 42.052 93.9804 42.052ZM102.092 42.052C101.433 42.052 100.844 41.9047 100.324 41.61C99.8123 41.3153 99.405 40.908 99.1017 40.388C98.807 39.868 98.6597 39.2743 98.6597 38.607C98.6597 37.931 98.807 37.333 99.1017 36.813C99.405 36.293 99.8123 35.89 100.324 35.604C100.844 35.3093 101.433 35.162 102.092 35.162C102.638 35.162 103.132 35.266 103.574 35.474C104.024 35.682 104.388 35.994 104.666 36.41L104.185 36.761C103.942 36.4143 103.639 36.1587 103.275 35.994C102.911 35.8293 102.516 35.747 102.092 35.747C101.563 35.747 101.086 35.8683 100.662 36.111C100.246 36.345 99.9163 36.6787 99.6737 37.112C99.4397 37.5367 99.3227 38.035 99.3227 38.607C99.3227 39.179 99.4397 39.6817 99.6737 40.115C99.9163 40.5397 100.246 40.8733 100.662 41.116C101.086 41.35 101.563 41.467 102.092 41.467C102.516 41.467 102.911 41.3847 103.275 41.22C103.639 41.0553 103.942 40.7997 104.185 40.453L104.666 40.804C104.388 41.22 104.024 41.532 103.574 41.74C103.132 41.948 102.638 42.052 102.092 42.052ZM101.663 44.821C101.463 44.821 101.277 44.795 101.104 44.743C100.939 44.691 100.783 44.6087 100.636 44.496L100.818 44.132C100.939 44.2187 101.069 44.2837 101.208 44.327C101.355 44.379 101.507 44.405 101.663 44.405C101.923 44.405 102.131 44.3443 102.287 44.223C102.443 44.1017 102.521 43.9327 102.521 43.716C102.521 43.5253 102.447 43.365 102.3 43.235C102.152 43.1137 101.94 43.053 101.663 43.053H101.403L101.702 41.922H102.131L101.923 42.702C102.269 42.7193 102.538 42.8233 102.729 43.014C102.928 43.2047 103.028 43.4473 103.028 43.742C103.028 44.0713 102.898 44.3313 102.638 44.522C102.386 44.7213 102.061 44.821 101.663 44.821ZM108.629 42.052C107.979 42.052 107.399 41.9047 106.887 41.61C106.385 41.3153 105.982 40.908 105.678 40.388C105.384 39.868 105.236 39.2743 105.236 38.607C105.236 37.931 105.384 37.3373 105.678 36.826C105.982 36.306 106.385 35.8987 106.887 35.604C107.399 35.3093 107.979 35.162 108.629 35.162C109.279 35.162 109.86 35.3093 110.371 35.604C110.883 35.8987 111.286 36.306 111.58 36.826C111.875 37.3373 112.022 37.931 112.022 38.607C112.022 39.2743 111.875 39.868 111.58 40.388C111.286 40.908 110.883 41.3153 110.371 41.61C109.86 41.9047 109.279 42.052 108.629 42.052ZM108.629 41.467C109.149 41.467 109.617 41.35 110.033 41.116C110.449 40.8733 110.774 40.5353 111.008 40.102C111.242 39.6687 111.359 39.1703 111.359 38.607C111.359 38.035 111.242 37.5367 111.008 37.112C110.774 36.6787 110.449 36.345 110.033 36.111C109.617 35.8683 109.149 35.747 108.629 35.747C108.109 35.747 107.641 35.8683 107.225 36.111C106.818 36.345 106.493 36.6787 106.25 37.112C106.016 37.5367 105.899 38.035 105.899 38.607C105.899 39.1703 106.016 39.6687 106.25 40.102C106.493 40.5353 106.818 40.8733 107.225 41.116C107.641 41.35 108.109 41.467 108.629 41.467ZM109.487 34.005C109.297 34.005 109.123 33.9617 108.967 33.875C108.82 33.7797 108.686 33.6757 108.564 33.563C108.443 33.4417 108.322 33.3377 108.2 33.251C108.079 33.1557 107.949 33.108 107.81 33.108C107.611 33.108 107.451 33.186 107.329 33.342C107.208 33.4893 107.139 33.693 107.121 33.953H106.692C106.71 33.563 106.814 33.251 107.004 33.017C107.204 32.7743 107.459 32.653 107.771 32.653C107.962 32.653 108.131 32.7007 108.278 32.796C108.434 32.8827 108.573 32.9867 108.694 33.108C108.824 33.2207 108.946 33.3247 109.058 33.42C109.18 33.5067 109.31 33.55 109.448 33.55C109.648 33.55 109.808 33.4763 109.929 33.329C110.059 33.173 110.129 32.9737 110.137 32.731H110.566C110.558 33.1037 110.454 33.4113 110.254 33.654C110.055 33.888 109.799 34.005 109.487 34.005ZM116.275 42.052C115.59 42.052 114.984 41.9047 114.455 41.61C113.935 41.3153 113.523 40.908 113.22 40.388C112.925 39.868 112.778 39.2743 112.778 38.607C112.778 37.931 112.917 37.3373 113.194 36.826C113.48 36.306 113.87 35.8987 114.364 35.604C114.858 35.3093 115.413 35.162 116.028 35.162C116.643 35.162 117.194 35.305 117.679 35.591C118.173 35.877 118.559 36.28 118.836 36.8C119.122 37.3113 119.265 37.905 119.265 38.581C119.265 38.607 119.261 38.6373 119.252 38.672C119.252 38.698 119.252 38.7283 119.252 38.763H113.259V38.256H118.901L118.641 38.503C118.65 37.9743 118.537 37.502 118.303 37.086C118.078 36.6613 117.77 36.332 117.38 36.098C116.99 35.8553 116.539 35.734 116.028 35.734C115.525 35.734 115.075 35.8553 114.676 36.098C114.286 36.332 113.978 36.6613 113.753 37.086C113.528 37.502 113.415 37.9787 113.415 38.516V38.633C113.415 39.1877 113.536 39.6817 113.779 40.115C114.03 40.5397 114.373 40.8733 114.806 41.116C115.239 41.35 115.733 41.467 116.288 41.467C116.721 41.467 117.124 41.389 117.497 41.233C117.878 41.077 118.199 40.8387 118.459 40.518L118.836 40.947C118.541 41.311 118.169 41.5883 117.718 41.779C117.276 41.961 116.795 42.052 116.275 42.052ZM122.472 42.052C121.908 42.052 121.38 41.9697 120.886 41.805C120.4 41.6403 120.023 41.4323 119.755 41.181L120.054 40.661C120.314 40.8863 120.66 41.0813 121.094 41.246C121.527 41.402 121.995 41.48 122.498 41.48C123.208 41.48 123.72 41.363 124.032 41.129C124.344 40.895 124.5 40.5873 124.5 40.206C124.5 39.9287 124.417 39.712 124.253 39.556C124.097 39.3913 123.884 39.2657 123.616 39.179C123.347 39.0923 123.052 39.023 122.732 38.971C122.411 38.9103 122.09 38.8453 121.77 38.776C121.449 38.7067 121.154 38.607 120.886 38.477C120.617 38.347 120.4 38.1693 120.236 37.944C120.08 37.71 120.002 37.4023 120.002 37.021C120.002 36.6743 120.097 36.3623 120.288 36.085C120.478 35.8077 120.764 35.5867 121.146 35.422C121.527 35.2487 122.004 35.162 122.576 35.162C123 35.162 123.425 35.2227 123.85 35.344C124.283 35.4653 124.634 35.6257 124.903 35.825L124.604 36.345C124.318 36.1283 123.997 35.9723 123.642 35.877C123.286 35.7817 122.927 35.734 122.563 35.734C121.904 35.734 121.419 35.8553 121.107 36.098C120.803 36.3407 120.652 36.644 120.652 37.008C120.652 37.294 120.73 37.5237 120.886 37.697C121.05 37.8617 121.267 37.9917 121.536 38.087C121.804 38.1737 122.099 38.2473 122.42 38.308C122.74 38.36 123.061 38.4207 123.382 38.49C123.702 38.5593 123.997 38.659 124.266 38.789C124.534 38.9103 124.747 39.0837 124.903 39.309C125.067 39.5257 125.15 39.8203 125.15 40.193C125.15 40.5657 125.046 40.8907 124.838 41.168C124.638 41.4453 124.339 41.662 123.941 41.818C123.542 41.974 123.052 42.052 122.472 42.052ZM129.471 42V32.9H135.555V33.498H130.134V42H129.471ZM130.056 37.983V37.385H134.983V37.983H130.056ZM136.944 42V35.214H137.594V42H136.944ZM137.269 33.563C137.121 33.563 136.996 33.511 136.892 33.407C136.788 33.303 136.736 33.1817 136.736 33.043C136.736 32.8957 136.788 32.77 136.892 32.666C136.996 32.562 137.121 32.51 137.269 32.51C137.425 32.51 137.55 32.562 137.646 32.666C137.75 32.7613 137.802 32.8827 137.802 33.03C137.802 33.1773 137.75 33.303 137.646 33.407C137.55 33.511 137.425 33.563 137.269 33.563ZM139.813 42V35.214H140.437V37.099L140.346 36.891C140.554 36.3537 140.897 35.9333 141.373 35.63C141.85 35.318 142.435 35.162 143.128 35.162C143.683 35.162 144.164 35.2703 144.571 35.487C144.987 35.695 145.308 36.0157 145.533 36.449C145.767 36.8737 145.884 37.4023 145.884 38.035V42H145.234V38.087C145.234 37.3243 145.039 36.7437 144.649 36.345C144.268 35.9463 143.731 35.747 143.037 35.747C142.509 35.747 142.049 35.8553 141.659 36.072C141.269 36.2887 140.97 36.592 140.762 36.982C140.563 37.372 140.463 37.84 140.463 38.386V42H139.813ZM152.317 42V40.453L152.291 40.219V37.671C152.291 37.0383 152.118 36.5573 151.771 36.228C151.433 35.8987 150.935 35.734 150.276 35.734C149.808 35.734 149.371 35.8163 148.963 35.981C148.565 36.137 148.222 36.3407 147.936 36.592L147.611 36.124C147.949 35.8207 148.357 35.5867 148.833 35.422C149.31 35.2487 149.808 35.162 150.328 35.162C151.169 35.162 151.815 35.3743 152.265 35.799C152.716 36.2237 152.941 36.8563 152.941 37.697V42H152.317ZM149.873 42.052C149.371 42.052 148.933 41.974 148.56 41.818C148.196 41.6533 147.915 41.4237 147.715 41.129C147.525 40.8343 147.429 40.4963 147.429 40.115C147.429 39.7683 147.507 39.4563 147.663 39.179C147.828 38.893 148.097 38.6633 148.469 38.49C148.842 38.308 149.34 38.217 149.964 38.217H152.46V38.724H149.977C149.275 38.724 148.781 38.854 148.495 39.114C148.218 39.374 148.079 39.699 148.079 40.089C148.079 40.5223 148.244 40.869 148.573 41.129C148.903 41.389 149.366 41.519 149.964 41.519C150.536 41.519 151.017 41.389 151.407 41.129C151.806 40.869 152.101 40.492 152.291 39.998L152.473 40.44C152.291 40.934 151.979 41.3283 151.537 41.623C151.104 41.909 150.549 42.052 149.873 42.052ZM155.1 42V35.214H155.724V37.099L155.633 36.891C155.841 36.3537 156.183 35.9333 156.66 35.63C157.136 35.318 157.721 35.162 158.415 35.162C158.969 35.162 159.45 35.2703 159.858 35.487C160.274 35.695 160.594 36.0157 160.82 36.449C161.054 36.8737 161.171 37.4023 161.171 38.035V42H160.521V38.087C160.521 37.3243 160.326 36.7437 159.936 36.345C159.554 35.9463 159.017 35.747 158.324 35.747C157.795 35.747 157.336 35.8553 156.946 36.072C156.556 36.2887 156.257 36.592 156.049 36.982C155.849 37.372 155.75 37.84 155.75 38.386V42H155.1ZM166.018 42.052C165.359 42.052 164.77 41.9047 164.25 41.61C163.738 41.3153 163.331 40.908 163.028 40.388C162.733 39.868 162.586 39.2743 162.586 38.607C162.586 37.931 162.733 37.333 163.028 36.813C163.331 36.293 163.738 35.89 164.25 35.604C164.77 35.3093 165.359 35.162 166.018 35.162C166.564 35.162 167.058 35.266 167.5 35.474C167.95 35.682 168.314 35.994 168.592 36.41L168.111 36.761C167.868 36.4143 167.565 36.1587 167.201 35.994C166.837 35.8293 166.442 35.747 166.018 35.747C165.489 35.747 165.012 35.8683 164.588 36.111C164.172 36.345 163.842 36.6787 163.6 37.112C163.366 37.5367 163.249 38.035 163.249 38.607C163.249 39.179 163.366 39.6817 163.6 40.115C163.842 40.5397 164.172 40.8733 164.588 41.116C165.012 41.35 165.489 41.467 166.018 41.467C166.442 41.467 166.837 41.3847 167.201 41.22C167.565 41.0553 167.868 40.7997 168.111 40.453L168.592 40.804C168.314 41.22 167.95 41.532 167.5 41.74C167.058 41.948 166.564 42.052 166.018 42.052ZM172.659 42.052C171.975 42.052 171.368 41.9047 170.839 41.61C170.319 41.3153 169.908 40.908 169.604 40.388C169.31 39.868 169.162 39.2743 169.162 38.607C169.162 37.931 169.301 37.3373 169.578 36.826C169.864 36.306 170.254 35.8987 170.748 35.604C171.242 35.3093 171.797 35.162 172.412 35.162C173.028 35.162 173.578 35.305 174.063 35.591C174.557 35.877 174.943 36.28 175.22 36.8C175.506 37.3113 175.649 37.905 175.649 38.581C175.649 38.607 175.645 38.6373 175.636 38.672C175.636 38.698 175.636 38.7283 175.636 38.763H169.643V38.256H175.285L175.025 38.503C175.034 37.9743 174.921 37.502 174.687 37.086C174.462 36.6613 174.154 36.332 173.764 36.098C173.374 35.8553 172.924 35.734 172.412 35.734C171.91 35.734 171.459 35.8553 171.06 36.098C170.67 36.332 170.363 36.6613 170.137 37.086C169.912 37.502 169.799 37.9787 169.799 38.516V38.633C169.799 39.1877 169.921 39.6817 170.163 40.115C170.415 40.5397 170.757 40.8733 171.19 41.116C171.624 41.35 172.118 41.467 172.672 41.467C173.106 41.467 173.509 41.389 173.881 41.233C174.263 41.077 174.583 40.8387 174.843 40.518L175.22 40.947C174.926 41.311 174.553 41.5883 174.102 41.779C173.66 41.961 173.179 42.052 172.659 42.052ZM177.14 42V35.214H177.79V42H177.14ZM177.465 33.563C177.318 33.563 177.192 33.511 177.088 33.407C176.984 33.303 176.932 33.1817 176.932 33.043C176.932 32.8957 176.984 32.77 177.088 32.666C177.192 32.562 177.318 32.51 177.465 32.51C177.621 32.51 177.747 32.562 177.842 32.666C177.946 32.7613 177.998 32.8827 177.998 33.03C177.998 33.1773 177.946 33.303 177.842 33.407C177.747 33.511 177.621 33.563 177.465 33.563ZM180.01 42V35.214H180.634V37.073L180.569 36.865C180.759 36.319 181.08 35.8987 181.531 35.604C181.981 35.3093 182.545 35.162 183.221 35.162V35.799C183.195 35.799 183.169 35.799 183.143 35.799C183.117 35.7903 183.091 35.786 183.065 35.786C182.311 35.786 181.721 36.0243 181.297 36.501C180.872 36.969 180.66 37.6233 180.66 38.464V42H180.01ZM188.388 42V40.453L188.362 40.219V37.671C188.362 37.0383 188.189 36.5573 187.842 36.228C187.504 35.8987 187.006 35.734 186.347 35.734C185.879 35.734 185.441 35.8163 185.034 35.981C184.635 36.137 184.293 36.3407 184.007 36.592L183.682 36.124C184.02 35.8207 184.427 35.5867 184.904 35.422C185.381 35.2487 185.879 35.162 186.399 35.162C187.24 35.162 187.885 35.3743 188.336 35.799C188.787 36.2237 189.012 36.8563 189.012 37.697V42H188.388ZM185.944 42.052C185.441 42.052 185.004 41.974 184.631 41.818C184.267 41.6533 183.985 41.4237 183.786 41.129C183.595 40.8343 183.5 40.4963 183.5 40.115C183.5 39.7683 183.578 39.4563 183.734 39.179C183.899 38.893 184.167 38.6633 184.54 38.49C184.913 38.308 185.411 38.217 186.035 38.217H188.531V38.724H186.048C185.346 38.724 184.852 38.854 184.566 39.114C184.289 39.374 184.15 39.699 184.15 40.089C184.15 40.5223 184.315 40.869 184.644 41.129C184.973 41.389 185.437 41.519 186.035 41.519C186.607 41.519 187.088 41.389 187.478 41.129C187.877 40.869 188.171 40.492 188.362 39.998L188.544 40.44C188.362 40.934 188.05 41.3283 187.608 41.623C187.175 41.909 186.62 42.052 185.944 42.052ZM192.886 42.052C192.323 42.052 191.794 41.9697 191.3 41.805C190.815 41.6403 190.438 41.4323 190.169 41.181L190.468 40.661C190.728 40.8863 191.075 41.0813 191.508 41.246C191.941 41.402 192.409 41.48 192.912 41.48C193.623 41.48 194.134 41.363 194.446 41.129C194.758 40.895 194.914 40.5873 194.914 40.206C194.914 39.9287 194.832 39.712 194.667 39.556C194.511 39.3913 194.299 39.2657 194.03 39.179C193.761 39.0923 193.467 39.023 193.146 38.971C192.825 38.9103 192.505 38.8453 192.184 38.776C191.863 38.7067 191.569 38.607 191.3 38.477C191.031 38.347 190.815 38.1693 190.65 37.944C190.494 37.71 190.416 37.4023 190.416 37.021C190.416 36.6743 190.511 36.3623 190.702 36.085C190.893 35.8077 191.179 35.5867 191.56 35.422C191.941 35.2487 192.418 35.162 192.99 35.162C193.415 35.162 193.839 35.2227 194.264 35.344C194.697 35.4653 195.048 35.6257 195.317 35.825L195.018 36.345C194.732 36.1283 194.411 35.9723 194.056 35.877C193.701 35.7817 193.341 35.734 192.977 35.734C192.318 35.734 191.833 35.8553 191.521 36.098C191.218 36.3407 191.066 36.644 191.066 37.008C191.066 37.294 191.144 37.5237 191.3 37.697C191.465 37.8617 191.681 37.9917 191.95 38.087C192.219 38.1737 192.513 38.2473 192.834 38.308C193.155 38.36 193.475 38.4207 193.796 38.49C194.117 38.5593 194.411 38.659 194.68 38.789C194.949 38.9103 195.161 39.0837 195.317 39.309C195.482 39.5257 195.564 39.8203 195.564 40.193C195.564 40.5657 195.46 40.8907 195.252 41.168C195.053 41.4453 194.754 41.662 194.355 41.818C193.956 41.974 193.467 42.052 192.886 42.052Z" fill="white"/>
</g>
<defs>
<filter id="filter0_d_8230_2" x="12.0615" y="9.60596" width="7.05273" height="29.7894" filterUnits="userSpaceOnUse" color-interpolation-filters="sRGB">
<feFlood flood-opacity="0" result="BackgroundImageFix"/>
<feColorMatrix in="SourceAlpha" type="matrix" values="0 0 0 0 0 0 0 0 0 0 0 0 0 0 0 0 0 0 127 0" result="hardAlpha"/>
<feOffset dy="0.5"/>
<feGaussianBlur stdDeviation="0.5"/>
<feComposite in2="hardAlpha" operator="out"/>
<feColorMatrix type="matrix" values="0 0 0 0 0 0 0 0 0 0 0 0 0 0 0 0 0 0 0.12 0"/>
<feBlend mode="normal" in2="BackgroundImageFix" result="effect1_dropShadow_8230_2"/>
<feBlend mode="normal" in="SourceGraphic" in2="effect1_dropShadow_8230_2" result="shape"/>
</filter>
<filter id="filter1_d_8230_2" x="21.5391" y="19.709" width="7.05249" height="19.6842" filterUnits="userSpaceOnUse" color-interpolation-filters="sRGB">
<feFlood flood-opacity="0" result="BackgroundImageFix"/>
<feColorMatrix in="SourceAlpha" type="matrix" values="0 0 0 0 0 0 0 0 0 0 0 0 0 0 0 0 0 0 127 0" result="hardAlpha"/>
<feOffset dy="0.5"/>
<feGaussianBlur stdDeviation="0.5"/>
<feComposite in2="hardAlpha" operator="out"/>
<feColorMatrix type="matrix" values="0 0 0 0 0 0 0 0 0 0 0 0 0 0 0 0 0 0 0.12 0"/>
<feBlend mode="normal" in2="BackgroundImageFix" result="effect1_dropShadow_8230_2"/>
<feBlend mode="normal" in="SourceGraphic" in2="effect1_dropShadow_8230_2" result="shape"/>
</filter>
<filter id="filter2_d_8230_2" x="31.0078" y="13.3926" width="7.05249" height="26" filterUnits="userSpaceOnUse" color-interpolation-filters="sRGB">
<feFlood flood-opacity="0" result="BackgroundImageFix"/>
<feColorMatrix in="SourceAlpha" type="matrix" values="0 0 0 0 0 0 0 0 0 0 0 0 0 0 0 0 0 0 127 0" result="hardAlpha"/>
<feOffset dy="0.5"/>
<feGaussianBlur stdDeviation="0.5"/>
<feComposite in2="hardAlpha" operator="out"/>
<feColorMatrix type="matrix" values="0 0 0 0 0 0 0 0 0 0 0 0 0 0 0 0 0 0 0.12 0"/>
<feBlend mode="normal" in2="BackgroundImageFix" result="effect1_dropShadow_8230_2"/>
<feBlend mode="normal" in="SourceGraphic" in2="effect1_dropShadow_8230_2" result="shape"/>
</filter>
<clipPath id="clip0_8230_2">
<rect width="231" height="48" fill="white"/>
</clipPath>
</defs>
</svg>
