<svg width="200" height="44" viewBox="0 0 200 44" fill="none" xmlns="http://www.w3.org/2000/svg">
<g clip-path="url(#clip0_8230_75)">
<path d="M0 13.4861C0 7.46738 4.87912 2.58826 10.8978 2.58826H30.5139C36.5327 2.58826 41.4118 7.46738 41.4118 13.4861V33.1021C41.4118 39.1209 36.5327 44 30.5139 44H10.8978C4.87912 44 0 39.1209 0 33.1021V13.4861Z" fill="#465FFF"/>
<g filter="url(#filter0_d_8230_75)">
<path d="M10.9014 13.4867C10.9014 12.283 11.8772 11.3071 13.0809 11.3071C14.2847 11.3071 15.2604 12.283 15.2604 13.4867V33.1028C15.2604 34.3066 14.2847 35.2823 13.0809 35.2823C11.8772 35.2823 10.9014 34.3066 10.9014 33.1028V13.4867Z" fill="white"/>
</g>
<g filter="url(#filter1_d_8230_75)">
<path d="M19.0781 22.2031C19.0781 20.9993 20.0539 20.0236 21.2577 20.0236C22.4615 20.0236 23.4372 20.9993 23.4372 22.2031V33.1009C23.4372 34.3047 22.4615 35.2804 21.2577 35.2804C20.0539 35.2804 19.0781 34.3047 19.0781 33.1009V22.2031Z" fill="white" fill-opacity="0.9"/>
</g>
<g filter="url(#filter2_d_8230_75)">
<path d="M27.2473 16.7535C27.2473 15.5498 28.2231 14.574 29.4269 14.574C30.6307 14.574 31.6064 15.5498 31.6064 16.7535V33.1003C31.6064 34.3041 30.6307 35.2798 29.4269 35.2798C28.2231 35.2798 27.2473 34.3041 27.2473 33.1003V16.7535Z" fill="white" fill-opacity="0.7"/>
</g>
</g>
<path d="M53.4458 27L62.1818 7.4H66.6618L75.4258 27H70.6658L63.4978 9.696H65.2898L58.0938 27H53.4458ZM57.8138 22.8L59.0178 19.356H69.0978L70.3298 22.8H57.8138ZM85.7259 27.336C84.2139 27.336 82.8045 27.0933 81.4979 26.608C80.2099 26.104 79.0899 25.3947 78.1379 24.48C77.1859 23.5653 76.4392 22.492 75.8979 21.26C75.3752 20.028 75.1139 18.6747 75.1139 17.2C75.1139 15.7253 75.3752 14.372 75.8979 13.14C76.4392 11.908 77.1859 10.8347 78.1379 9.92C79.1085 9.00533 80.2379 8.30533 81.5259 7.82C82.8139 7.316 84.2232 7.064 85.7539 7.064C87.4525 7.064 88.9832 7.36267 90.3459 7.96C91.7272 8.53867 92.8845 9.39733 93.8179 10.536L90.9059 13.224C90.2339 12.4587 89.4872 11.8893 88.6659 11.516C87.8445 11.124 86.9485 10.928 85.9779 10.928C85.0632 10.928 84.2232 11.0773 83.4579 11.376C82.6925 11.6747 82.0299 12.104 81.4699 12.664C80.9099 13.224 80.4712 13.8867 80.1539 14.652C79.8552 15.4173 79.7059 16.2667 79.7059 17.2C79.7059 18.1333 79.8552 18.9827 80.1539 19.748C80.4712 20.5133 80.9099 21.176 81.4699 21.736C82.0299 22.296 82.6925 22.7253 83.4579 23.024C84.2232 23.3227 85.0632 23.472 85.9779 23.472C86.9485 23.472 87.8445 23.2853 88.6659 22.912C89.4872 22.52 90.2339 21.932 90.9059 21.148L93.8179 23.836C92.8845 24.9747 91.7272 25.8427 90.3459 26.44C88.9832 27.0373 87.4432 27.336 85.7259 27.336ZM112.237 27.336C110.725 27.336 109.316 27.0933 108.009 26.608C106.721 26.104 105.601 25.3947 104.649 24.48C103.697 23.5653 102.951 22.492 102.409 21.26C101.887 20.028 101.625 18.6747 101.625 17.2C101.625 15.7253 101.887 14.372 102.409 13.14C102.951 11.908 103.697 10.8347 104.649 9.92C105.62 9.00533 106.749 8.30533 108.037 7.82C109.325 7.316 110.735 7.064 112.265 7.064C113.964 7.064 115.495 7.36267 116.857 7.96C118.239 8.53867 119.396 9.39733 120.329 10.536L117.417 13.224C116.745 12.4587 115.999 11.8893 115.177 11.516C114.356 11.124 113.46 10.928 112.489 10.928C111.575 10.928 110.735 11.0773 109.969 11.376C109.204 11.6747 108.541 12.104 107.981 12.664C107.421 13.224 106.983 13.8867 106.665 14.652C106.367 15.4173 106.217 16.2667 106.217 17.2C106.217 18.1333 106.367 18.9827 106.665 19.748C106.983 20.5133 107.421 21.176 107.981 21.736C108.541 22.296 109.204 22.7253 109.969 23.024C110.735 23.3227 111.575 23.472 112.489 23.472C113.46 23.472 114.356 23.2853 115.177 22.912C115.999 22.52 116.745 21.932 117.417 21.148L120.329 23.836C119.396 24.9747 118.239 25.8427 116.857 26.44C115.495 27.0373 113.955 27.336 112.237 27.336ZM127.972 27.224C126.721 27.224 125.601 26.9813 124.612 26.496C123.641 26.0107 122.885 25.2733 122.344 24.284C121.802 23.276 121.532 21.9973 121.532 20.448V11.936H125.9V19.804C125.9 21.0547 126.161 21.9787 126.684 22.576C127.225 23.1547 127.981 23.444 128.952 23.444C129.624 23.444 130.221 23.304 130.744 23.024C131.266 22.7253 131.677 22.2773 131.976 21.68C132.274 21.064 132.424 20.2987 132.424 19.384V11.936H136.792V27H132.648V22.856L133.404 24.06C132.9 25.1053 132.153 25.8987 131.164 26.44C130.193 26.9627 129.129 27.224 127.972 27.224ZM139.998 27V11.936H144.17V16.108L143.386 14.848C143.928 13.84 144.702 13.0653 145.71 12.524C146.718 11.9827 147.866 11.712 149.154 11.712C150.349 11.712 151.413 11.9547 152.346 12.44C153.298 12.9067 154.045 13.6347 154.586 14.624C155.128 15.5947 155.398 16.8453 155.398 18.376V27H151.03V19.048C151.03 17.8347 150.76 16.9387 150.218 16.36C149.696 15.7813 148.949 15.492 147.978 15.492C147.288 15.492 146.662 15.6413 146.102 15.94C145.561 16.22 145.132 16.6587 144.814 17.256C144.516 17.8533 144.366 18.6187 144.366 19.552V27H139.998ZM158.518 27V6.224H162.886V16.108L161.906 14.848C162.447 13.84 163.222 13.0653 164.23 12.524C165.238 11.9827 166.386 11.712 167.674 11.712C168.868 11.712 169.932 11.9547 170.866 12.44C171.818 12.9067 172.564 13.6347 173.106 14.624C173.647 15.5947 173.918 16.8453 173.918 18.376V27H169.55V19.048C169.55 17.8347 169.279 16.9387 168.738 16.36C168.215 15.7813 167.468 15.492 166.498 15.492C165.807 15.492 165.182 15.6413 164.622 15.94C164.08 16.22 163.651 16.6587 163.334 17.256C163.035 17.8533 162.886 18.6187 162.886 19.552V27H158.518ZM186.277 27V24.06L185.997 23.416V18.152C185.997 17.2187 185.708 16.4907 185.129 15.968C184.569 15.4453 183.701 15.184 182.525 15.184C181.722 15.184 180.929 15.3147 180.145 15.576C179.38 15.8187 178.726 16.1547 178.185 16.584L176.617 13.532C177.438 12.9533 178.428 12.5053 179.585 12.188C180.742 11.8707 181.918 11.712 183.113 11.712C185.409 11.712 187.192 12.2533 188.461 13.336C189.73 14.4187 190.365 16.108 190.365 18.404V27H186.277ZM181.685 27.224C180.509 27.224 179.501 27.028 178.661 26.636C177.821 26.2253 177.177 25.6747 176.729 24.984C176.281 24.2933 176.057 23.5187 176.057 22.66C176.057 21.764 176.272 20.98 176.701 20.308C177.149 19.636 177.849 19.1133 178.801 18.74C179.753 18.348 180.994 18.152 182.525 18.152H186.529V20.7H183.001C181.974 20.7 181.265 20.868 180.873 21.204C180.5 21.54 180.313 21.96 180.313 22.464C180.313 23.024 180.528 23.472 180.957 23.808C181.405 24.1253 182.012 24.284 182.777 24.284C183.505 24.284 184.158 24.116 184.737 23.78C185.316 23.4253 185.736 22.912 185.997 22.24L186.669 24.256C186.352 25.2267 185.773 25.964 184.933 26.468C184.093 26.972 183.01 27.224 181.685 27.224Z" fill="white"/>
<path d="M58.9244 38.04C58.5084 38.04 58.1137 37.9707 57.7404 37.832C57.3724 37.688 57.0871 37.504 56.8844 37.28L57.0684 36.976C57.2604 37.1733 57.5217 37.3413 57.8524 37.48C58.1884 37.6133 58.5431 37.68 58.9164 37.68C59.2897 37.68 59.5937 37.632 59.8284 37.536C60.0684 37.4347 60.2444 37.3013 60.3564 37.136C60.4737 36.9707 60.5324 36.7867 60.5324 36.584C60.5324 36.344 60.4684 36.152 60.3404 36.008C60.2124 35.864 60.0444 35.7493 59.8364 35.664C59.6284 35.5787 59.4017 35.5067 59.1564 35.448C58.9111 35.3893 58.6631 35.328 58.4124 35.264C58.1617 35.1947 57.9324 35.1067 57.7244 35C57.5164 34.8933 57.3484 34.7493 57.2204 34.568C57.0977 34.3813 57.0364 34.1413 57.0364 33.848C57.0364 33.5813 57.1057 33.336 57.2444 33.112C57.3831 32.888 57.5991 32.7067 57.8924 32.568C58.1857 32.4293 58.5617 32.36 59.0204 32.36C59.3297 32.36 59.6337 32.4053 59.9324 32.496C60.2364 32.5867 60.4951 32.7093 60.7084 32.864L60.5564 33.192C60.3217 33.032 60.0684 32.9147 59.7964 32.84C59.5297 32.76 59.2711 32.72 59.0204 32.72C58.6631 32.72 58.3671 32.7707 58.1324 32.872C57.8977 32.9733 57.7244 33.1093 57.6124 33.28C57.5004 33.4453 57.4444 33.632 57.4444 33.84C57.4444 34.08 57.5057 34.272 57.6284 34.416C57.7564 34.56 57.9244 34.6747 58.1324 34.76C58.3404 34.8453 58.5697 34.9173 58.8204 34.976C59.0711 35.0347 59.3191 35.0987 59.5644 35.168C59.8097 35.232 60.0364 35.3173 60.2444 35.424C60.4524 35.5307 60.6204 35.6747 60.7484 35.856C60.8764 36.0373 60.9404 36.272 60.9404 36.56C60.9404 36.8213 60.8684 37.0667 60.7244 37.296C60.5804 37.52 60.3591 37.7013 60.0604 37.84C59.7671 37.9733 59.3884 38.04 58.9244 38.04ZM66.5514 38.032C66.1514 38.032 65.7941 37.9413 65.4794 37.76C65.1701 37.5787 64.9221 37.328 64.7354 37.008C64.5541 36.688 64.4634 36.3227 64.4634 35.912C64.4634 35.496 64.5541 35.1307 64.7354 34.816C64.9221 34.496 65.1701 34.2453 65.4794 34.064C65.7941 33.8827 66.1514 33.792 66.5514 33.792C66.9514 33.792 67.3087 33.8827 67.6234 34.064C67.9381 34.2453 68.1861 34.496 68.3674 34.816C68.5487 35.1307 68.6394 35.496 68.6394 35.912C68.6394 36.3227 68.5487 36.688 68.3674 37.008C68.1861 37.328 67.9381 37.5787 67.6234 37.76C67.3087 37.9413 66.9514 38.032 66.5514 38.032ZM66.5514 37.672C66.8714 37.672 67.1594 37.6 67.4154 37.456C67.6714 37.3067 67.8714 37.0987 68.0154 36.832C68.1594 36.5653 68.2314 36.2587 68.2314 35.912C68.2314 35.56 68.1594 35.2533 68.0154 34.992C67.8714 34.7253 67.6714 34.52 67.4154 34.376C67.1594 34.2267 66.8714 34.152 66.5514 34.152C66.2314 34.152 65.9434 34.2267 65.6874 34.376C65.4367 34.52 65.2367 34.7253 65.0874 34.992C64.9434 35.2533 64.8714 35.56 64.8714 35.912C64.8714 36.2587 64.9434 36.5653 65.0874 36.832C65.2367 37.0987 65.4367 37.3067 65.6874 37.456C65.9434 37.6 66.2314 37.672 66.5514 37.672ZM72.6003 38V32.064H73.0003V38H72.6003ZM79.1023 38.032C78.7449 38.032 78.4356 37.968 78.1743 37.84C77.9129 37.7067 77.7103 37.5093 77.5663 37.248C77.4276 36.9813 77.3583 36.6533 77.3583 36.264V33.824H77.7583V36.232C77.7583 36.7013 77.8783 37.0587 78.1183 37.304C78.3583 37.5493 78.6969 37.672 79.1343 37.672C79.4489 37.672 79.7209 37.6053 79.9503 37.472C80.1796 37.3387 80.3556 37.152 80.4783 36.912C80.6009 36.6667 80.6623 36.3787 80.6623 36.048V33.824H81.0623V38H80.6783V36.84L80.7343 36.976C80.6116 37.3013 80.4063 37.56 80.1183 37.752C79.8356 37.9387 79.4969 38.032 79.1023 38.032ZM87.1338 38.032C86.7285 38.032 86.3658 37.9413 86.0458 37.76C85.7312 37.5787 85.4805 37.328 85.2938 37.008C85.1125 36.688 85.0218 36.3227 85.0218 35.912C85.0218 35.496 85.1125 35.128 85.2938 34.808C85.4805 34.488 85.7312 34.24 86.0458 34.064C86.3658 33.8827 86.7285 33.792 87.1338 33.792C87.4698 33.792 87.7738 33.856 88.0458 33.984C88.3232 34.112 88.5472 34.304 88.7178 34.56L88.4218 34.776C88.2725 34.5627 88.0858 34.4053 87.8618 34.304C87.6378 34.2027 87.3952 34.152 87.1338 34.152C86.8085 34.152 86.5152 34.2267 86.2538 34.376C85.9978 34.52 85.7952 34.7253 85.6458 34.992C85.5018 35.2533 85.4298 35.56 85.4298 35.912C85.4298 36.264 85.5018 36.5733 85.6458 36.84C85.7952 37.1013 85.9978 37.3067 86.2538 37.456C86.5152 37.6 86.8085 37.672 87.1338 37.672C87.3952 37.672 87.6378 37.6213 87.8618 37.52C88.0858 37.4187 88.2725 37.2613 88.4218 37.048L88.7178 37.264C88.5472 37.52 88.3232 37.712 88.0458 37.84C87.7738 37.968 87.4698 38.032 87.1338 38.032ZM86.8698 39.736C86.7472 39.736 86.6325 39.72 86.5258 39.688C86.4245 39.656 86.3285 39.6053 86.2378 39.536L86.3498 39.312C86.4245 39.3653 86.5045 39.4053 86.5898 39.432C86.6805 39.464 86.7738 39.48 86.8698 39.48C87.0298 39.48 87.1578 39.4427 87.2538 39.368C87.3498 39.2933 87.3978 39.1893 87.3978 39.056C87.3978 38.9387 87.3525 38.84 87.2618 38.76C87.1712 38.6853 87.0405 38.648 86.8698 38.648H86.7098L86.8938 37.952H87.1578L87.0298 38.432C87.2432 38.4427 87.4085 38.5067 87.5258 38.624C87.6485 38.7413 87.7098 38.8907 87.7098 39.072C87.7098 39.2747 87.6298 39.4347 87.4698 39.552C87.3152 39.6747 87.1152 39.736 86.8698 39.736ZM94.197 38.032C93.797 38.032 93.4397 37.9413 93.125 37.76C92.8157 37.5787 92.5677 37.328 92.381 37.008C92.1997 36.688 92.109 36.3227 92.109 35.912C92.109 35.496 92.1997 35.1307 92.381 34.816C92.5677 34.496 92.8157 34.2453 93.125 34.064C93.4397 33.8827 93.797 33.792 94.197 33.792C94.597 33.792 94.9544 33.8827 95.269 34.064C95.5837 34.2453 95.8317 34.496 96.013 34.816C96.1944 35.1307 96.285 35.496 96.285 35.912C96.285 36.3227 96.1944 36.688 96.013 37.008C95.8317 37.328 95.5837 37.5787 95.269 37.76C94.9544 37.9413 94.597 38.032 94.197 38.032ZM94.197 37.672C94.517 37.672 94.805 37.6 95.061 37.456C95.317 37.3067 95.517 37.0987 95.661 36.832C95.805 36.5653 95.877 36.2587 95.877 35.912C95.877 35.56 95.805 35.2533 95.661 34.992C95.517 34.7253 95.317 34.52 95.061 34.376C94.805 34.2267 94.517 34.152 94.197 34.152C93.877 34.152 93.589 34.2267 93.333 34.376C93.0824 34.52 92.8824 34.7253 92.733 34.992C92.589 35.2533 92.517 35.56 92.517 35.912C92.517 36.2587 92.589 36.5653 92.733 36.832C92.8824 37.0987 93.0824 37.3067 93.333 37.456C93.589 37.6 93.877 37.672 94.197 37.672ZM94.725 33.08C94.6077 33.08 94.501 33.0533 94.405 33C94.3144 32.9413 94.2317 32.8773 94.157 32.808C94.0824 32.7333 94.0077 32.6693 93.933 32.616C93.8584 32.5573 93.7784 32.528 93.693 32.528C93.5704 32.528 93.4717 32.576 93.397 32.672C93.3224 32.7627 93.2797 32.888 93.269 33.048H93.005C93.0157 32.808 93.0797 32.616 93.197 32.472C93.3197 32.3227 93.477 32.248 93.669 32.248C93.7864 32.248 93.8904 32.2773 93.981 32.336C94.077 32.3893 94.1624 32.4533 94.237 32.528C94.317 32.5973 94.3917 32.6613 94.461 32.72C94.5357 32.7733 94.6157 32.8 94.701 32.8C94.8237 32.8 94.9224 32.7547 94.997 32.664C95.077 32.568 95.1197 32.4453 95.125 32.296H95.389C95.3837 32.5253 95.3197 32.7147 95.197 32.864C95.0744 33.008 94.917 33.08 94.725 33.08ZM101.942 38.032C101.521 38.032 101.147 37.9413 100.822 37.76C100.502 37.5787 100.249 37.328 100.062 37.008C99.8806 36.688 99.79 36.3227 99.79 35.912C99.79 35.496 99.8753 35.1307 100.046 34.816C100.222 34.496 100.462 34.2453 100.766 34.064C101.07 33.8827 101.411 33.792 101.79 33.792C102.169 33.792 102.507 33.88 102.806 34.056C103.11 34.232 103.347 34.48 103.518 34.8C103.694 35.1147 103.782 35.48 103.782 35.896C103.782 35.912 103.779 35.9307 103.774 35.952C103.774 35.968 103.774 35.9867 103.774 36.008H100.086V35.696H103.558L103.398 35.848C103.403 35.5227 103.334 35.232 103.19 34.976C103.051 34.7147 102.862 34.512 102.622 34.368C102.382 34.2187 102.105 34.144 101.79 34.144C101.481 34.144 101.203 34.2187 100.958 34.368C100.718 34.512 100.529 34.7147 100.39 34.976C100.251 35.232 100.182 35.5253 100.182 35.856V35.928C100.182 36.2693 100.257 36.5733 100.406 36.84C100.561 37.1013 100.771 37.3067 101.038 37.456C101.305 37.6 101.609 37.672 101.95 37.672C102.217 37.672 102.465 37.624 102.694 37.528C102.929 37.432 103.126 37.2853 103.286 37.088L103.518 37.352C103.337 37.576 103.107 37.7467 102.83 37.864C102.558 37.976 102.262 38.032 101.942 38.032ZM108.795 38.032C108.449 38.032 108.123 37.9813 107.819 37.88C107.521 37.7787 107.289 37.6507 107.123 37.496L107.307 37.176C107.467 37.3147 107.681 37.4347 107.947 37.536C108.214 37.632 108.502 37.68 108.811 37.68C109.249 37.68 109.563 37.608 109.755 37.464C109.947 37.32 110.043 37.1307 110.043 36.896C110.043 36.7253 109.993 36.592 109.891 36.496C109.795 36.3947 109.665 36.3173 109.499 36.264C109.334 36.2107 109.153 36.168 108.955 36.136C108.758 36.0987 108.561 36.0587 108.363 36.016C108.166 35.9733 107.985 35.912 107.819 35.832C107.654 35.752 107.521 35.6427 107.419 35.504C107.323 35.36 107.275 35.1707 107.275 34.936C107.275 34.7227 107.334 34.5307 107.451 34.36C107.569 34.1893 107.745 34.0533 107.979 33.952C108.214 33.8453 108.507 33.792 108.859 33.792C109.121 33.792 109.382 33.8293 109.643 33.904C109.91 33.9787 110.126 34.0773 110.291 34.2L110.107 34.52C109.931 34.3867 109.734 34.2907 109.515 34.232C109.297 34.1733 109.075 34.144 108.851 34.144C108.446 34.144 108.147 34.2187 107.955 34.368C107.769 34.5173 107.675 34.704 107.675 34.928C107.675 35.104 107.723 35.2453 107.819 35.352C107.921 35.4533 108.054 35.5333 108.219 35.592C108.385 35.6453 108.566 35.6907 108.763 35.728C108.961 35.76 109.158 35.7973 109.355 35.84C109.553 35.8827 109.734 35.944 109.899 36.024C110.065 36.0987 110.195 36.2053 110.291 36.344C110.393 36.4773 110.443 36.6587 110.443 36.888C110.443 37.1173 110.379 37.3173 110.251 37.488C110.129 37.6587 109.945 37.792 109.699 37.888C109.454 37.984 109.153 38.032 108.795 38.032ZM119.182 38V32.4H122.926V32.768H119.59V38H119.182ZM119.542 35.528V35.16H122.574V35.528H119.542ZM126.821 38V33.824H127.221V38H126.821ZM127.021 32.808C126.931 32.808 126.853 32.776 126.789 32.712C126.725 32.648 126.693 32.5733 126.693 32.488C126.693 32.3973 126.725 32.32 126.789 32.256C126.853 32.192 126.931 32.16 127.021 32.16C127.117 32.16 127.195 32.192 127.253 32.256C127.317 32.3147 127.349 32.3893 127.349 32.48C127.349 32.5707 127.317 32.648 127.253 32.712C127.195 32.776 127.117 32.808 127.021 32.808ZM131.627 38V33.824H132.011V34.984L131.955 34.856C132.083 34.5253 132.294 34.2667 132.587 34.08C132.881 33.888 133.241 33.792 133.667 33.792C134.009 33.792 134.305 33.8587 134.555 33.992C134.811 34.12 135.009 34.3173 135.147 34.584C135.291 34.8453 135.363 35.1707 135.363 35.56V38H134.963V35.592C134.963 35.1227 134.843 34.7653 134.603 34.52C134.369 34.2747 134.038 34.152 133.611 34.152C133.286 34.152 133.003 34.2187 132.763 34.352C132.523 34.4853 132.339 34.672 132.211 34.912C132.089 35.152 132.027 35.44 132.027 35.776V38H131.627ZM142.362 38V37.048L142.346 36.904V35.336C142.346 34.9467 142.239 34.6507 142.026 34.448C141.818 34.2453 141.511 34.144 141.106 34.144C140.818 34.144 140.549 34.1947 140.298 34.296C140.053 34.392 139.842 34.5173 139.666 34.672L139.466 34.384C139.674 34.1973 139.925 34.0533 140.218 33.952C140.511 33.8453 140.818 33.792 141.138 33.792C141.655 33.792 142.053 33.9227 142.33 34.184C142.607 34.4453 142.746 34.8347 142.746 35.352V38H142.362ZM140.858 38.032C140.549 38.032 140.279 37.984 140.05 37.888C139.826 37.7867 139.653 37.6453 139.53 37.464C139.413 37.2827 139.354 37.0747 139.354 36.84C139.354 36.6267 139.402 36.4347 139.498 36.264C139.599 36.088 139.765 35.9467 139.994 35.84C140.223 35.728 140.53 35.672 140.914 35.672H142.45V35.984H140.922C140.49 35.984 140.186 36.064 140.01 36.224C139.839 36.384 139.754 36.584 139.754 36.824C139.754 37.0907 139.855 37.304 140.058 37.464C140.261 37.624 140.546 37.704 140.914 37.704C141.266 37.704 141.562 37.624 141.802 37.464C142.047 37.304 142.229 37.072 142.346 36.768L142.458 37.04C142.346 37.344 142.154 37.5867 141.882 37.768C141.615 37.944 141.274 38.032 140.858 38.032ZM147.114 38V33.824H147.498V34.984L147.442 34.856C147.57 34.5253 147.781 34.2667 148.074 34.08C148.367 33.888 148.727 33.792 149.154 33.792C149.495 33.792 149.791 33.8587 150.042 33.992C150.298 34.12 150.495 34.3173 150.634 34.584C150.778 34.8453 150.85 35.1707 150.85 35.56V38H150.45V35.592C150.45 35.1227 150.33 34.7653 150.09 34.52C149.855 34.2747 149.525 34.152 149.098 34.152C148.773 34.152 148.49 34.2187 148.25 34.352C148.01 34.4853 147.826 34.672 147.698 34.912C147.575 35.152 147.514 35.44 147.514 35.776V38H147.114ZM156.873 38.032C156.468 38.032 156.105 37.9413 155.785 37.76C155.47 37.5787 155.22 37.328 155.033 37.008C154.852 36.688 154.761 36.3227 154.761 35.912C154.761 35.496 154.852 35.128 155.033 34.808C155.22 34.488 155.47 34.24 155.785 34.064C156.105 33.8827 156.468 33.792 156.873 33.792C157.209 33.792 157.513 33.856 157.785 33.984C158.062 34.112 158.286 34.304 158.457 34.56L158.161 34.776C158.012 34.5627 157.825 34.4053 157.601 34.304C157.377 34.2027 157.134 34.152 156.873 34.152C156.548 34.152 156.254 34.2267 155.993 34.376C155.737 34.52 155.534 34.7253 155.385 34.992C155.241 35.2533 155.169 35.56 155.169 35.912C155.169 36.264 155.241 36.5733 155.385 36.84C155.534 37.1013 155.737 37.3067 155.993 37.456C156.254 37.6 156.548 37.672 156.873 37.672C157.134 37.672 157.377 37.6213 157.601 37.52C157.825 37.4187 158.012 37.2613 158.161 37.048L158.457 37.264C158.286 37.52 158.062 37.712 157.785 37.84C157.513 37.968 157.209 38.032 156.873 38.032ZM164 38.032C163.579 38.032 163.205 37.9413 162.88 37.76C162.56 37.5787 162.307 37.328 162.12 37.008C161.939 36.688 161.848 36.3227 161.848 35.912C161.848 35.496 161.933 35.1307 162.104 34.816C162.28 34.496 162.52 34.2453 162.824 34.064C163.128 33.8827 163.469 33.792 163.848 33.792C164.227 33.792 164.565 33.88 164.864 34.056C165.168 34.232 165.405 34.48 165.576 34.8C165.752 35.1147 165.84 35.48 165.84 35.896C165.84 35.912 165.837 35.9307 165.832 35.952C165.832 35.968 165.832 35.9867 165.832 36.008H162.144V35.696H165.616L165.456 35.848C165.461 35.5227 165.392 35.232 165.248 34.976C165.109 34.7147 164.92 34.512 164.68 34.368C164.44 34.2187 164.163 34.144 163.848 34.144C163.539 34.144 163.261 34.2187 163.016 34.368C162.776 34.512 162.587 34.7147 162.448 34.976C162.309 35.232 162.24 35.5253 162.24 35.856V35.928C162.24 36.2693 162.315 36.5733 162.464 36.84C162.619 37.1013 162.829 37.3067 163.096 37.456C163.363 37.6 163.667 37.672 164.008 37.672C164.275 37.672 164.523 37.624 164.752 37.528C164.987 37.432 165.184 37.2853 165.344 37.088L165.576 37.352C165.395 37.576 165.165 37.7467 164.888 37.864C164.616 37.976 164.32 38.032 164 38.032ZM169.798 38V33.824H170.198V38H169.798ZM169.998 32.808C169.907 32.808 169.83 32.776 169.766 32.712C169.702 32.648 169.67 32.5733 169.67 32.488C169.67 32.3973 169.702 32.32 169.766 32.256C169.83 32.192 169.907 32.16 169.998 32.16C170.094 32.16 170.171 32.192 170.23 32.256C170.294 32.3147 170.326 32.3893 170.326 32.48C170.326 32.5707 170.294 32.648 170.23 32.712C170.171 32.776 170.094 32.808 169.998 32.808ZM174.603 38V33.824H174.987V34.968L174.947 34.84C175.065 34.504 175.262 34.2453 175.539 34.064C175.817 33.8827 176.163 33.792 176.579 33.792V34.184C176.563 34.184 176.547 34.184 176.531 34.184C176.515 34.1787 176.499 34.176 176.483 34.176C176.019 34.176 175.657 34.3227 175.395 34.616C175.134 34.904 175.003 35.3067 175.003 35.824V38H174.603ZM182.799 38V37.048L182.783 36.904V35.336C182.783 34.9467 182.677 34.6507 182.463 34.448C182.255 34.2453 181.949 34.144 181.543 34.144C181.255 34.144 180.986 34.1947 180.735 34.296C180.49 34.392 180.279 34.5173 180.103 34.672L179.903 34.384C180.111 34.1973 180.362 34.0533 180.655 33.952C180.949 33.8453 181.255 33.792 181.575 33.792C182.093 33.792 182.49 33.9227 182.767 34.184C183.045 34.4453 183.183 34.8347 183.183 35.352V38H182.799ZM181.295 38.032C180.986 38.032 180.717 37.984 180.487 37.888C180.263 37.7867 180.09 37.6453 179.967 37.464C179.85 37.2827 179.791 37.0747 179.791 36.84C179.791 36.6267 179.839 36.4347 179.935 36.264C180.037 36.088 180.202 35.9467 180.431 35.84C180.661 35.728 180.967 35.672 181.351 35.672H182.887V35.984H181.359C180.927 35.984 180.623 36.064 180.447 36.224C180.277 36.384 180.191 36.584 180.191 36.824C180.191 37.0907 180.293 37.304 180.495 37.464C180.698 37.624 180.983 37.704 181.351 37.704C181.703 37.704 181.999 37.624 182.239 37.464C182.485 37.304 182.666 37.072 182.783 36.768L182.895 37.04C182.783 37.344 182.591 37.5867 182.319 37.768C182.053 37.944 181.711 38.032 181.295 38.032ZM188.607 38.032C188.261 38.032 187.935 37.9813 187.631 37.88C187.333 37.7787 187.101 37.6507 186.935 37.496L187.119 37.176C187.279 37.3147 187.493 37.4347 187.759 37.536C188.026 37.632 188.314 37.68 188.623 37.68C189.061 37.68 189.375 37.608 189.567 37.464C189.759 37.32 189.855 37.1307 189.855 36.896C189.855 36.7253 189.805 36.592 189.703 36.496C189.607 36.3947 189.477 36.3173 189.311 36.264C189.146 36.2107 188.965 36.168 188.767 36.136C188.57 36.0987 188.373 36.0587 188.175 36.016C187.978 35.9733 187.797 35.912 187.631 35.832C187.466 35.752 187.333 35.6427 187.231 35.504C187.135 35.36 187.087 35.1707 187.087 34.936C187.087 34.7227 187.146 34.5307 187.263 34.36C187.381 34.1893 187.557 34.0533 187.791 33.952C188.026 33.8453 188.319 33.792 188.671 33.792C188.933 33.792 189.194 33.8293 189.455 33.904C189.722 33.9787 189.938 34.0773 190.103 34.2L189.919 34.52C189.743 34.3867 189.546 34.2907 189.327 34.232C189.109 34.1733 188.887 34.144 188.663 34.144C188.258 34.144 187.959 34.2187 187.767 34.368C187.581 34.5173 187.487 34.704 187.487 34.928C187.487 35.104 187.535 35.2453 187.631 35.352C187.733 35.4533 187.866 35.5333 188.031 35.592C188.197 35.6453 188.378 35.6907 188.575 35.728C188.773 35.76 188.97 35.7973 189.167 35.84C189.365 35.8827 189.546 35.944 189.711 36.024C189.877 36.0987 190.007 36.2053 190.103 36.344C190.205 36.4773 190.255 36.6587 190.255 36.888C190.255 37.1173 190.191 37.3173 190.063 37.488C189.941 37.6587 189.757 37.792 189.511 37.888C189.266 37.984 188.965 38.032 188.607 38.032Z" fill="white"/>
<defs>
<filter id="filter0_d_8230_75" x="9.90137" y="10.8071" width="6.35913" height="25.9752" filterUnits="userSpaceOnUse" color-interpolation-filters="sRGB">
<feFlood flood-opacity="0" result="BackgroundImageFix"/>
<feColorMatrix in="SourceAlpha" type="matrix" values="0 0 0 0 0 0 0 0 0 0 0 0 0 0 0 0 0 0 127 0" result="hardAlpha"/>
<feOffset dy="0.5"/>
<feGaussianBlur stdDeviation="0.5"/>
<feComposite in2="hardAlpha" operator="out"/>
<feColorMatrix type="matrix" values="0 0 0 0 0 0 0 0 0 0 0 0 0 0 0 0 0 0 0.12 0"/>
<feBlend mode="normal" in2="BackgroundImageFix" result="effect1_dropShadow_8230_75"/>
<feBlend mode="normal" in="SourceGraphic" in2="effect1_dropShadow_8230_75" result="shape"/>
</filter>
<filter id="filter1_d_8230_75" x="18.0781" y="19.5236" width="6.35913" height="17.2568" filterUnits="userSpaceOnUse" color-interpolation-filters="sRGB">
<feFlood flood-opacity="0" result="BackgroundImageFix"/>
<feColorMatrix in="SourceAlpha" type="matrix" values="0 0 0 0 0 0 0 0 0 0 0 0 0 0 0 0 0 0 127 0" result="hardAlpha"/>
<feOffset dy="0.5"/>
<feGaussianBlur stdDeviation="0.5"/>
<feComposite in2="hardAlpha" operator="out"/>
<feColorMatrix type="matrix" values="0 0 0 0 0 0 0 0 0 0 0 0 0 0 0 0 0 0 0.12 0"/>
<feBlend mode="normal" in2="BackgroundImageFix" result="effect1_dropShadow_8230_75"/>
<feBlend mode="normal" in="SourceGraphic" in2="effect1_dropShadow_8230_75" result="shape"/>
</filter>
<filter id="filter2_d_8230_75" x="26.2473" y="14.074" width="6.35913" height="22.7058" filterUnits="userSpaceOnUse" color-interpolation-filters="sRGB">
<feFlood flood-opacity="0" result="BackgroundImageFix"/>
<feColorMatrix in="SourceAlpha" type="matrix" values="0 0 0 0 0 0 0 0 0 0 0 0 0 0 0 0 0 0 127 0" result="hardAlpha"/>
<feOffset dy="0.5"/>
<feGaussianBlur stdDeviation="0.5"/>
<feComposite in2="hardAlpha" operator="out"/>
<feColorMatrix type="matrix" values="0 0 0 0 0 0 0 0 0 0 0 0 0 0 0 0 0 0 0.12 0"/>
<feBlend mode="normal" in2="BackgroundImageFix" result="effect1_dropShadow_8230_75"/>
<feBlend mode="normal" in="SourceGraphic" in2="effect1_dropShadow_8230_75" result="shape"/>
</filter>
<clipPath id="clip0_8230_75">
<rect width="199.294" height="41.4118" fill="white" transform="translate(0 2.58826)"/>
</clipPath>
</defs>
</svg>
